<?xml version="1.0" encoding="UTF-8"?>
<svg id="Layer_1" xmlns="http://www.w3.org/2000/svg" version="1.1" viewBox="0 0 261.4 250">
  <!-- Generator: Adobe Illustrator 30.4.0, SVG Export Plug-In . SVG Version: 2.1.4 Build 226)  -->
  <defs>
    <style>
      .st0 {
        fill: #f3b52a;
      }

      .st1 {
        fill: #15223e;
      }

      .st2 {
        fill: #fefefe;
      }
    </style>
  </defs>
  <rect class="st2" x="5.7" width="250" height="250" rx="70.4" ry="70.4"/>
  <g>
    <path class="st1" d="M129.4,134.5c.2-1.3,1.1-4.2,1.1-4.6V56.9c17.2.9,35.7-2.2,52.4,2.3,38.5,10.4,59.8,51.6,46.2,89.1-8.5,23.5-30.5,41.3-55.5,44.2,13.8-16.7,23.4-37,25-58.9.2-2.9-.8-6.7.8-8.9h16.1l-33.5-33.1-33.5,33.1h16.3c.5,29.5-19.4,56.4-47.5,65.2l-13.5,3.1c-5-.4-10.9.6-15.8,0-2.1-.2-5.9-1.6-8.2-2.2,23-6.6,42.3-24.8,48.3-48.2.8-3.2.8-5.2,1.2-8.3h0Z"/>
    <path class="st0" d="M79.9,190.9c-29-7.5-48.7-30.6-51.7-60.5V56.9h34.3v72.4c0,6.1,6.6,16.8,11.1,20.9,18.8,16.9,48.4,7.9,55.8-15.8-.4,3.1-.4,5-1.2,8.3-5.9,23.4-25.3,41.6-48.3,48.2h0Z"/>
  </g>
</svg>